<?xml version="1.0" encoding="utf-8"?>
<!-- Generator: Adobe Illustrator 27.3.1, SVG Export Plug-In . SVG Version: 6.00 Build 0)  -->
<svg version="1.1" id="Layer_1" xmlns="http://www.w3.org/2000/svg" xmlns:xlink="http://www.w3.org/1999/xlink" x="0px" y="0px"
	 viewBox="0 0 80 80" style="enable-background:new 0 0 80 80;" xml:space="preserve">
<style type="text/css">
	.st0{fill:#F27457;}
</style>
<g>
	<path class="st0" d="M17.7,69.1l-7.3-7.4C0,51.3-0.2,34,10.4,23.7c5-4.8,11.6-7.4,18.4-7.4c6.9,0.1,13.4,2.8,18.3,7.7l7.7,7.7
		c0.6,0.6,1,1.2,1.3,2c0.3,0.7,0.5,1.5,0.5,2.3s-0.2,1.6-0.5,2.3s-0.8,1.4-1.3,2c-1.1,1.1-2.7,1.8-4.3,1.8c-1.6,0-3.1-0.6-4.3-1.8
		l-7.5-7.5c-2.6-2.6-6.1-4.2-9.8-4.3c-3.7-0.1-7.3,1.2-10,3.7c-1.4,1.3-2.5,2.9-3.3,4.6c-0.8,1.7-1.2,3.6-1.2,5.5s0.3,3.8,1,5.6
		s1.8,3.4,3.1,4.7l7.7,7.7c0.6,0.6,1,1.2,1.3,2s0.5,1.5,0.5,2.3s-0.2,1.6-0.5,2.3c-0.3,0.7-0.8,1.4-1.3,2c-1.1,1.1-2.7,1.8-4.3,1.8
		C20.3,70.9,18.8,70.2,17.7,69.1z"/>
	<path class="st0" d="M62.3,10.9l7.3,7.4c10.4,10.4,10.6,27.7,0,38c-5,4.8-11.6,7.4-18.4,7.4c-6.9-0.1-13.4-2.8-18.3-7.7l-7.7-7.7
		c-0.6-0.6-1-1.2-1.3-2s-0.5-1.5-0.5-2.3s0.2-1.6,0.5-2.3s0.8-1.4,1.3-2c1.1-1.1,2.7-1.8,4.3-1.8c1.6,0,3.1,0.6,4.3,1.8l7.5,7.5
		c2.6,2.6,6.1,4.2,9.8,4.3c3.7,0.1,7.3-1.2,10-3.7c1.4-1.3,2.5-2.9,3.3-4.6c0.8-1.7,1.2-3.6,1.2-5.5s-0.3-3.8-1-5.6
		c-0.7-1.8-1.8-3.4-3.1-4.7l-7.7-7.7c-0.6-0.6-1-1.2-1.3-2C52.2,17,52,16.2,52,15.4c0-0.8,0.2-1.6,0.5-2.3c0.3-0.7,0.8-1.4,1.3-2
		c1.1-1.1,2.7-1.8,4.3-1.8C59.6,9.1,61.1,9.8,62.3,10.9z"/>
</g>
</svg>
