<?xml version="1.0" encoding="utf-8"?>
<!-- Generator: Adobe Illustrator 27.3.1, SVG Export Plug-In . SVG Version: 6.00 Build 0)  -->
<svg version="1.1" id="Layer_1" xmlns="http://www.w3.org/2000/svg" xmlns:xlink="http://www.w3.org/1999/xlink" x="0px" y="0px"
	 viewBox="0 0 80 80" style="enable-background:new 0 0 80 80;" xml:space="preserve">
<style type="text/css">
	.st0{fill-rule:evenodd;clip-rule:evenodd;fill:#F27457;}
</style>
<g>
	<path class="st0" d="M51.4,16.5C69,26.7,66.3,22,66.3,42.4c0,20.3,2.7,15.7-14.9,25.9c-6.8,3.9-10.2,6.4-12.8,7.2
		c0.1-14.9,1.2-11.4,17-20.5v-2.5c-1.4-0.8-2.8-1.6-4.3-2.5c-1.4-0.8-2.8-1.6-4.2-2.5c-1.4-0.8-2.8-1.6-4.2-2.5
		c-1.4-0.8-2.8-1.6-4.3-2.5c-0.7-0.4-1.4-0.8-2.1-1.2c-1.4-0.8-2.8-1.6-4.3-2.5c-1.4-0.8-2.8-1.6-4.3-2.5c-0.7-0.4-1.4-0.8-2.1-1.2
		c-0.3-0.2-0.6-0.5-0.8-0.8c-0.2-0.3-0.3-0.7-0.3-1.1c0-0.4,0.1-0.7,0.3-1.1c0.1-0.2,0.3-0.5,0.5-0.6c0.2-0.2,0.5-0.3,0.7-0.4
		c0.3-0.1,0.6-0.1,0.8-0.1c0.3,0,0.5,0.1,0.8,0.3c1.4,0.8,2.8,1.6,4.3,2.5c1.4,0.8,2.8,1.6,4.3,2.5c2.1,1.2,4.2,2.5,6.4,3.7
		c1.4,0.8,2.8,1.6,4.2,2.5v-4.9c-3.5-2-7.1-4.1-10.6-6.1c-0.7-0.4-1.4-0.8-2.1-1.2c-0.5-0.3-0.8-0.8-1-1.3c-0.1-0.5-0.1-1.1,0.2-1.6
		c0.3-0.5,0.7-0.8,1.3-1c0.5-0.1,1.1-0.1,1.6,0.2c5,2.9,9.9,5.7,14.9,8.6v9.8c1.4,0.8,2.8,1.6,4.3,2.5V32.9L36.5,21.8
		c-1.4,0.8-2.8,1.6-4.3,2.5c-1.4,0.8-2.8,1.6-4.3,2.5l-1.1,0.6c-1.1,0.6-2.1,1.2-3.2,1.8c-1.4,0.8-2.8,1.6-4.2,2.5
		c-0.7,0.4-1.4,0.8-2.1,1.2v2.5l4.2,2.5c1.4,0.8,2.8,1.6,4.3,2.5s2.8,1.6,4.2,2.5c1.4,0.8,2.8,1.6,4.2,2.5c0.7,0.4,1.4,0.8,2.1,1.2
		c2.8,1.6,5.7,3.3,8.5,4.9c0.7,0.4,1.4,0.8,2.2,1.2c0.3,0.2,0.6,0.5,0.8,0.8c0.2,0.3,0.3,0.7,0.3,1.1c0,0.4-0.1,0.7-0.3,1.1
		c-0.2,0.3-0.5,0.6-0.8,0.8c-0.3,0.2-0.7,0.3-1.1,0.3c-0.4,0-0.7-0.1-1.1-0.3l-4.2-2.5c-1.4-0.8-2.8-1.6-4.2-2.5
		c-2.1-1.2-4.3-2.5-6.4-3.7c-1.4-0.8-2.8-1.6-4.2-2.5v4.9c3.5,2,7.1,4.1,10.6,6.1c0.7,0.4,1.4,0.8,2.1,1.2c0.3,0.2,0.6,0.5,0.8,0.8
		c0.2,0.3,0.3,0.7,0.3,1.1c0,0.4-0.1,0.7-0.3,1.1c-0.2,0.3-0.5,0.6-0.8,0.8c-0.3,0.2-0.7,0.3-1.1,0.3c-0.4,0-0.7-0.1-1.1-0.3
		c-5-2.9-9.9-5.7-14.9-8.6v-9.8l-4.2-2.5V55c15.8,9.1,16.9,5.7,17,20.5c-2.6-0.9-6-3.3-12.8-7.2C3.9,58.1,6.6,62.7,6.6,42.4
		S3.9,26.7,21.5,16.5C39.1,6.3,33.8,6.3,51.4,16.5"/>
</g>
</svg>
