<?xml version="1.0" encoding="utf-8"?>
<!-- Generator: Adobe Illustrator 27.3.1, SVG Export Plug-In . SVG Version: 6.00 Build 0)  -->
<svg version="1.1" id="Layer_1" xmlns="http://www.w3.org/2000/svg" xmlns:xlink="http://www.w3.org/1999/xlink" x="0px" y="0px"
	 viewBox="0 0 80 80" style="enable-background:new 0 0 80 80;" xml:space="preserve">
<style type="text/css">
	.st0{fill:#00C7B8;}
</style>
<path class="st0" d="M42.1,53.6v2.4c0,1.1-0.9,2.1-2.1,2.1h0c-1.1,0-2.1-0.9-2.1-2.1v-2.2c-1.8-0.2-3.9-0.9-5.7-1.9
	c-1-0.6-1.3-1.9-0.7-2.9l0.5-0.8c0.6-0.9,1.8-1.2,2.7-0.7c1.5,0.9,2.9,1.4,4.4,1.4c2.4,0,3.4-1,3.4-2.9c0-4.3-11.2-4.3-11.2-11.9
	c0-4.2,2.4-7,6.4-7.8v-2.4c0-1.1,0.9-2.1,2.1-2.1l0,0c1.1,0,2.1,0.9,2.1,2.1v2.2c1.8,0.3,3.3,1,4.6,2c1,0.7,1.1,2.1,0.3,3l-0.5,0.6
	c-0.7,0.8-1.8,0.9-2.6,0.4c-1-0.7-2-1-3.2-1c-2.1,0-3.1,0.8-3.1,2.7c0,4,11.2,3.7,11.2,11.8C48.8,49.7,46.5,52.7,42.1,53.6z"/>
</svg>
