<?xml version="1.0" encoding="utf-8"?>
<!-- Generator: Adobe Illustrator 27.3.1, SVG Export Plug-In . SVG Version: 6.00 Build 0)  -->
<svg version="1.1" id="Layer_1" xmlns="http://www.w3.org/2000/svg" xmlns:xlink="http://www.w3.org/1999/xlink" x="0px" y="0px"
	 viewBox="0 0 80 80" style="enable-background:new 0 0 80 80;" xml:space="preserve">
<style type="text/css">
	.st0{clip-path:url(#SVGID_00000127731270568230269330000010655268486805027211_);}
	.st1{fill-rule:evenodd;clip-rule:evenodd;fill:#FFFFFF;}
	.st2{fill:#FFFFFF;}
</style>
<g>
	<defs>
		<rect id="SVGID_1_" x="0" width="80" height="80"/>
	</defs>
	<clipPath id="SVGID_00000177485301272252491100000003825785724514094488_">
		<use xlink:href="#SVGID_1_"  style="overflow:visible;"/>
	</clipPath>
	<g style="clip-path:url(#SVGID_00000177485301272252491100000003825785724514094488_);">
		<path class="st1" d="M0,40C0,17.9,17.9,0,40,0s40,17.9,40,40S62.1,80,40,80S0,62.1,0,40z M40,6.7C21.6,6.7,6.7,21.6,6.7,40
			S21.6,73.3,40,73.3S73.3,58.4,73.3,40S58.4,6.7,40,6.7z"/>
	</g>
</g>
<g id="XMLID_2_">
	<g id="XMLID_190_">
		<path id="XMLID_276_" class="st2" d="M30.3,24.2c-0.5,0.5-1.3,0.5-1.8,1c-0.2,0.2-0.2,0.4-0.2,0.7c0.1,0.4,0.4,0.5,0.7,0.5
			c2.3,0.6,4.5,1.9,6.1,3.6c0.1,0.1,0.2,0.3,0.3,0.4c1.6-0.3,3.3-0.2,5-0.2c1.3,0.1,2.7,0.5,4,0.6c0-0.2,0.1-0.3,0.1-0.5
			c0.6-1.5,1.8-2.6,2.8-3.9c1-1.2,2.6-3.6,1.7-5.3c-0.4-0.8-1.7,0.3-1.8-0.7c0-0.2,0-0.5,0-0.7c0-0.5-0.2-1-0.6-1.4
			c-0.4-0.4-1-0.5-1.5-0.2c-0.4,0.3-0.4,0.7-0.4,1.1c-0.1,0.8-0.5,1.5-0.9,2.1c0,0,0,0,0,0c-0.2,0.3-0.8,0.2-0.9-0.1
			c-0.2-0.5-0.1-1.1-0.4-1.6c-0.2-0.4-0.6-0.8-1-1c-0.8-0.4-2.1-0.6-3-0.6c-2.5,0.1-2.1,2.5-3,4.1c-0.2,0.3-0.6,0.4-0.8,0.1
			c-0.8-0.9-1.3-1.3-2.6-1.8c-0.6-0.2-1.4-0.4-2-0.1c-0.5,0.2-0.7,0.8-0.6,1.3c0.2,0.8,1,0.4,1.5,0.7C31.2,22.9,31,23.6,30.3,24.2
			L30.3,24.2z"/>
		<path id="XMLID_318_" class="st2" d="M49.6,38.2c-1.5-1.6-2.9-3.2-4-5.1c-0.1-0.2-0.4-0.6-0.6-1c-1.4-0.1-2.7-0.5-4.1-0.6
			c-0.3,0-0.7,0-1-0.1c0.6,0.6,1.8,1.5,3.4,1.8c0.3,0,0.5,0.3,0.4,0.6c0,0.2-0.2,0.4-0.4,0.4c0,0-0.1,0-0.2,0c-1.1-0.2-2-0.6-2.7-1
			c0.2,0.5,0.5,1,0.9,1.4c0.2,0.2,0.2,0.5-0.1,0.7c-0.2,0.2-0.4,0.2-0.6,0c0,0-0.1-0.1-0.1-0.1c-1-1.2-1.5-2.4-1.6-3.4
			c-0.2-0.2-0.3-0.4-0.4-0.5c-0.2,0-0.5,0-0.7,0c-0.6,0-1.3,0.1-1.9,0.2c0,0.2-0.1,0.4-0.2,0.7c-1,1.6-3.2,3.2-4.2,4.2
			c-2.3,2.2-4.4,4.6-5.2,7.8c-1.1,4.3-0.7,9.2,1.9,12.9c2.5,3.7,6.9,5.3,11.3,5.3c9.7,0,18.2-8.9,14-18.6
			C52.4,41.7,51.1,39.8,49.6,38.2L49.6,38.2z M43.1,51.9c-0.5,0.5-1.3,0.8-2.3,0.9v1.5h-1.2v-1.5c-0.9-0.1-1.7-0.4-2.3-1
			c-0.6-0.6-0.9-1.4-0.9-2.5l0,0h1.8c0,0.7,0.2,1.2,0.5,1.5s0.8,0.5,1.4,0.5c0.6,0,1-0.1,1.4-0.4c0.3-0.3,0.5-0.7,0.5-1.1
			c0-0.4-0.1-0.8-0.4-1.1c-0.3-0.3-0.8-0.5-1.5-0.8c-1.1-0.3-1.9-0.8-2.5-1.3c-0.5-0.5-0.8-1.2-0.8-2.2c0-0.9,0.3-1.6,0.8-2.1
			c0.5-0.5,1.2-0.9,2.2-1v-1.7H41v1.7c0.9,0.1,1.6,0.5,2.1,1.1c0.5,0.6,0.7,1.4,0.7,2.4l0,0H42c0-0.6-0.1-1.1-0.4-1.4
			c-0.3-0.3-0.7-0.5-1.2-0.5c-0.5,0-0.9,0.1-1.2,0.4c-0.3,0.3-0.4,0.7-0.4,1.1c0,0.4,0.1,0.8,0.4,1.1c0.3,0.3,0.8,0.5,1.5,0.8
			c1.1,0.4,1.9,0.8,2.5,1.3c0.5,0.5,0.8,1.2,0.8,2.2S43.6,51.4,43.1,51.9L43.1,51.9z"/>
		<path id="XMLID_319_" class="st2" d="M50.2,24.2c1.8,0.5,3.5,1.5,4.8,2.8c0.1,0.1,0.2,0.2,0.2,0.3c1.3-0.3,2.6-0.2,3.9-0.1
			c1,0,2.1,0.4,3.2,0.5c0-0.1,0-0.3,0.1-0.4c0.5-1.1,1.4-2.1,2.2-3c0.8-1,2-2.8,1.3-4.1c-0.3-0.6-1.4,0.3-1.4-0.5c0-0.2,0-0.4,0-0.6
			c0-0.4-0.2-0.8-0.5-1.1c-0.3-0.3-0.8-0.4-1.2-0.1c-0.3,0.2-0.3,0.5-0.4,0.8c-0.1,0.6-0.4,1.1-0.7,1.7c0,0,0,0,0,0
			c-0.2,0.3-0.6,0.2-0.7-0.1c-0.2-0.4-0.1-0.9-0.3-1.3c-0.2-0.3-0.5-0.6-0.8-0.8c-0.7-0.3-1.6-0.5-2.4-0.5c-2,0.1-1.6,2-2.4,3.2
			c-0.1,0.2-0.5,0.3-0.7,0.1c-0.6-0.7-1-1-2.1-1.4c-0.5-0.2-1.1-0.3-1.6-0.1c-0.4,0.2-0.6,0.6-0.5,1c0.2,0.6,0.8,0.3,1.1,0.6
			c0.3,0.3,0.2,0.8-0.3,1.3c-0.4,0.4-1,0.4-1.4,0.8c-0.1,0.1-0.2,0.3-0.1,0.5C49.7,24,50,24.1,50.2,24.2L50.2,24.2z"/>
		<path id="XMLID_322_" class="st2" d="M69.1,37.8c-0.7-1.6-1.8-3.1-2.9-4.4c-1.1-1.2-2.3-2.5-3.2-4c-0.1-0.2-0.3-0.5-0.5-0.8
			c-1.1-0.1-2.1-0.4-3.2-0.4c-0.3,0-0.5,0-0.8,0c0.5,0.5,1.4,1.2,2.7,1.4c0.2,0,0.4,0.2,0.3,0.5c0,0.2-0.2,0.3-0.3,0.3
			c0,0-0.1,0-0.1,0c-0.9-0.1-1.6-0.4-2.1-0.8c0.2,0.4,0.4,0.7,0.7,1.1c0.1,0.2,0.1,0.4,0,0.6c-0.1,0.1-0.3,0.1-0.5,0
			c0,0-0.1,0-0.1-0.1c-0.8-0.9-1.1-1.9-1.3-2.6c-0.1-0.2-0.3-0.3-0.3-0.4c-0.2,0-0.4,0-0.5,0c-0.5,0-1,0.1-1.5,0.2
			c0,0.2-0.1,0.3-0.2,0.5c-0.8,1.3-2.5,2.5-3.3,3.3c-1.1,1.1-2.2,2.2-3,3.5c0.5,0.6,1,1.2,1.6,1.7c1.7,1.8,3.1,3.9,4,6
			c1.3,2.9,1.6,5.9,0.9,8.8c0.9,0.2,1.9,0.3,2.8,0.3C65.8,52.3,72.4,45.4,69.1,37.8z M61.1,44.1c-0.4,0.4-1,0.7-1.8,0.7v1.2h-1v-1.2
			c-0.7-0.1-1.3-0.3-1.8-0.8c-0.5-0.4-0.7-1.1-0.7-2l0,0h1.4c0,0.6,0.1,1,0.4,1.2c0.3,0.2,0.6,0.4,1.1,0.4c0.5,0,0.8-0.1,1.1-0.3
			c0.2-0.2,0.4-0.5,0.4-0.9c0-0.3-0.1-0.6-0.3-0.8c-0.2-0.2-0.6-0.4-1.1-0.6c-0.9-0.3-1.5-0.6-1.9-1c-0.4-0.4-0.6-1-0.6-1.7
			c0-0.7,0.2-1.2,0.6-1.7c0.4-0.4,1-0.7,1.7-0.8v-1.3h1v1.3c0.7,0.1,1.2,0.4,1.7,0.8c0.4,0.5,0.6,1.1,0.6,1.8l0,0h-1.4
			c0-0.5-0.1-0.8-0.3-1.1c-0.2-0.3-0.5-0.4-0.9-0.4c-0.4,0-0.7,0.1-0.9,0.3c-0.2,0.2-0.3,0.5-0.3,0.9c0,0.3,0.1,0.6,0.3,0.8
			c0.2,0.2,0.6,0.4,1.2,0.6c0.9,0.3,1.5,0.6,1.9,1c0.4,0.4,0.6,1,0.6,1.7C61.7,43.2,61.5,43.7,61.1,44.1L61.1,44.1z"/>
		<path id="XMLID_323_" class="st2" d="M12.8,24.2c1.8,0.5,3.5,1.5,4.8,2.8c0.1,0.1,0.2,0.2,0.2,0.3c1.3-0.3,2.6-0.2,3.9-0.1
			c1,0,2.1,0.4,3.2,0.5c0-0.1,0-0.3,0.1-0.4c0.5-1.1,1.4-2.1,2.2-3c0.8-1,2-2.8,1.3-4.1c-0.3-0.6-1.4,0.3-1.4-0.5c0-0.2,0-0.4,0-0.6
			c0-0.4-0.2-0.8-0.5-1.1c-0.3-0.3-0.8-0.4-1.2-0.1C25,18,25.1,18.3,25,18.6c-0.1,0.6-0.4,1.1-0.7,1.7c0,0,0,0,0,0
			c-0.2,0.3-0.6,0.2-0.7-0.1c-0.2-0.4-0.1-0.9-0.3-1.3c-0.2-0.3-0.5-0.6-0.8-0.8c-0.7-0.3-1.6-0.5-2.4-0.5c-2,0.1-1.6,2-2.4,3.2
			c-0.1,0.2-0.5,0.3-0.7,0.1c-0.6-0.7-1-1-2.1-1.4c-0.5-0.2-1.1-0.3-1.6-0.1c-0.4,0.2-0.6,0.6-0.5,1c0.2,0.6,0.8,0.3,1.1,0.6
			c0.3,0.3,0.2,0.8-0.3,1.3c-0.4,0.4-1,0.4-1.4,0.8c-0.1,0.1-0.2,0.3-0.1,0.5C12.3,24,12.5,24.1,12.8,24.2L12.8,24.2z"/>
		<path id="XMLID_326_" class="st2" d="M30.4,35.5c-0.5-0.8-1.1-1.5-1.7-2.1c-1.1-1.2-2.3-2.5-3.2-4c-0.1-0.2-0.3-0.5-0.5-0.8
			c-1.1-0.1-2.1-0.4-3.2-0.4c-0.3,0-0.5,0-0.8,0c0.5,0.5,1.4,1.2,2.7,1.4c0.2,0,0.4,0.2,0.3,0.5c0,0.2-0.2,0.3-0.3,0.3
			c0,0-0.1,0-0.1,0c-0.9-0.1-1.6-0.4-2.1-0.8c0.2,0.4,0.4,0.7,0.7,1.1c0.1,0.2,0.1,0.4,0,0.6c-0.1,0.1-0.3,0.1-0.5,0
			c0,0-0.1,0-0.1-0.1c-0.8-0.9-1.1-1.9-1.3-2.6c-0.1-0.2-0.3-0.3-0.3-0.4c-0.2,0-0.4,0-0.5,0c-0.5,0-1,0.1-1.5,0.2
			c0,0.2-0.1,0.3-0.2,0.5c-0.8,1.3-2.5,2.5-3.3,3.3c-1.8,1.7-3.5,3.6-4.1,6.1c-0.8,3.3-0.5,7.2,1.5,10.1c2,2.9,5.4,4.1,8.8,4.1
			c1.3,0,2.6-0.2,3.8-0.6c0-0.2-0.1-0.5-0.1-0.7c-0.3-2.3-0.1-4.8,0.5-7.2C25.8,40.4,28.1,37.8,30.4,35.5L30.4,35.5z M23.7,44.1
			c-0.4,0.4-1,0.7-1.8,0.7v1.2h-1v-1.2c-0.7-0.1-1.3-0.3-1.8-0.8c-0.5-0.4-0.7-1.1-0.7-2l0,0h1.4c0,0.6,0.1,1,0.4,1.2
			s0.6,0.4,1.1,0.4c0.5,0,0.8-0.1,1.1-0.3c0.2-0.2,0.4-0.5,0.4-0.9c0-0.3-0.1-0.6-0.3-0.8c-0.2-0.2-0.6-0.4-1.1-0.6
			c-0.9-0.3-1.5-0.6-1.9-1c-0.4-0.4-0.6-1-0.6-1.7c0-0.7,0.2-1.2,0.6-1.7c0.4-0.4,1-0.7,1.7-0.8v-1.3h1v1.3c0.7,0.1,1.2,0.4,1.7,0.8
			c0.4,0.5,0.6,1.1,0.6,1.8l0,0h-1.4c0-0.5-0.1-0.8-0.3-1.1c-0.2-0.3-0.5-0.4-0.9-0.4c-0.4,0-0.7,0.1-0.9,0.3
			c-0.2,0.2-0.3,0.5-0.3,0.9c0,0.3,0.1,0.6,0.3,0.8c0.2,0.2,0.6,0.4,1.2,0.6c0.9,0.3,1.5,0.6,1.9,1c0.4,0.4,0.6,1,0.6,1.7
			C24.3,43.2,24.1,43.7,23.7,44.1L23.7,44.1z"/>
	</g>
</g>
</svg>
